# xmcd
#
# Track frame offsets:
# 151
# 16756
# 33417
#
# Disc length: 668 seconds
#
#
# Revision: 0
# Processed by: cddbd v1.5.1PL2 Copyright (c) Steve Scherf et al.
# Submitted via: FreeRIP 2.944 
#
DISCID=16029a03
DTITLE=Harold Lyons - The Electric Rubboard King
DYEAR=2006
DGENRE=Bluegrass
TTITLE0=Momma's Rubboard
TTITLE1=Momma's Rubboard ( 2 )
TTITLE2=Momma's Rubboard ( Instrumental )
EXTD=
EXTT0=
EXTT1=
EXTT2=
PLAYORDER=
